<svg width="32" height="32" viewBox="0 0 32 32" fill="none" xmlns="http://www.w3.org/2000/svg">
<path d="M14.2311 3.35268C14.9815 1.93038 17.0185 1.93039 17.7689 3.35268L20.4315 8.39921C20.7209 8.9477 21.2483 9.33091 21.8594 9.43664L27.4817 10.4094C29.0663 10.6836 29.6957 12.6209 28.5749 13.7741L24.5982 17.8658C24.166 18.3105 23.9645 18.9306 24.0528 19.5444L24.865 25.1922C25.0939 26.7839 23.4459 27.9812 22.0028 27.2716L16.8825 24.7539C16.326 24.4803 15.674 24.4803 15.1175 24.7539L9.99715 27.2716C8.55406 27.9812 6.90612 26.7839 7.13503 25.1922L7.94723 19.5444C8.0355 18.9306 7.83403 18.3105 7.40181 17.8658L3.42506 13.7741C2.30427 12.6209 2.93373 10.6836 4.5183 10.4094L10.1406 9.43664C10.7517 9.33091 11.2791 8.94769 11.5685 8.3992L14.2311 3.35268Z" fill="#9747FF"/>
</svg>
